PathFileType  4	(X/Y/Z) C:\Users\antoi\Documents\MyRepositories\mobilecap\ResultsAnalysis
DataRate	CameraRate	NumFrames	NumMarkers	Units	OrigDataRate	OrigDataStartFrame	OrigNumFrames
100.0	100.0	4	51	mm	100.0	301	801
Frame#	Time	r_knee			r_shank_antsup			r_ankle			r_calc			r_5meta			r_toe			L_knee			L_shank_antsup			L_ankle			L_calc			L_5meta			L_toe			r_sh2			r_sh3			r_sh4			L_sh2			L_sh3			r_thigh1			r_thigh2			r_thigh3			r_thigh4			r_thigh5			L_thigh1			L_thigh2			L_thigh3			L_thigh4			r.ASIS			r.PSIS			L.ASIS			L.PSIS			C7			R_Shoulder			L_Shoulder			R_Sternum			L_Sternum			R_humerus			R_elbow_med			R_elbow_lat			R_forearm			R_wrist_radius			R_wrist_ulna			L_humerus			L_elbow_med			L_elbow_lat			L_forearm			L_wrist_radius			L_wrist_ulna			R_HJC			L_HJC			R_HJC_reg			L_HJC_reg			
		X1	Y1	Z1	X2	Y2	Z2	X3	Y3	Z3	X4	Y4	Z4	X5	Y5	Z5	X6	Y6	Z6	X7	Y7	Z7	X8	Y8	Z8	X9	Y9	Z9	X10	Y10	Z10	X11	Y11	Z11	X12	Y12	Z12	X13	Y13	Z13	X14	Y14	Z14	X15	Y15	Z15	X16	Y16	Z16	X17	Y17	Z17	X18	Y18	Z18	X19	Y19	Z19	X20	Y20	Z20	X21	Y21	Z21	X22	Y22	Z22	X23	Y23	Z23	X24	Y24	Z24	X25	Y25	Z25	X26	Y26	Z26	X27	Y27	Z27	X28	Y28	Z28	X29	Y29	Z29	X30	Y30	Z30	X31	Y31	Z31	X32	Y32	Z32	X33	Y33	Z33	X34	Y34	Z34	X35	Y35	Z35	X36	Y36	Z36	X37	Y37	Z37	X38	Y38	Z38	X39	Y39	Z39	X40	Y40	Z40	X41	Y41	Z41	X42	Y42	Z42	X43	Y43	Z43	X44	Y44	Z44	X45	Y45	Z45	X46	Y46	Z46	X47	Y47	Z47	X48	Y48	Z48	X49	Y49	Z49	X50	Y50	Z50	X51	Y51	Z51	

301	3.00000000	-215.37485	609.90150	-352.30399	-197.67714	461.35803	-337.47393	-294.34441	104.59684	-303.20231	-352.95969	71.94984	-364.75993	-159.38831	43.65647	-270.30534	-121.02112	73.13783	-319.93462	-242.26743	610.40341	-825.70093	-204.85820	411.98310	-838.80044	-303.94876	116.95077	-878.52606	-358.52920	75.43584	-819.17363	-165.12696	36.36931	-927.93365	-121.10514	66.28714	-870.07157	-213.65195	348.20708	-330.60342	-264.34614	470.22836	-305.35600	-282.06894	360.59984	-287.36347	-276.56072	433.01720	-885.09486	-294.40025	314.53712	-885.15720	-226.28691	907.62860	-359.70038	-196.68412	800.33523	-347.30531	-253.51426	762.01403	-340.93310	-329.59989	877.30273	-394.18900	-302.35760	764.18450	-368.84947	-202.27714	907.65182	-793.43473	-192.12221	773.28507	-807.98531	-311.91396	905.05433	-798.67696	-299.36969	769.32195	-824.14316	-199.72879	1167.59297	-443.49742	-379.28913	1209.63183	-537.39601	-197.07985	1159.74732	-714.73690	-375.36564	1211.57092	-629.60440	-239.18606	1681.66024	-583.03093	-155.95177	1640.97972	-409.17687	-167.43948	1654.73799	-749.87098	-100.68261	1593.14138	-554.67724	-100.29845	1594.38614	-600.51118	-151.87876	1378.30474	-332.62804	-243.43916	1249.10692	-335.28871	-190.70683	1272.61704	-268.84128	-28.05970	1252.60112	-407.63051	37.02021	1245.94944	-466.55626	35.99739	1210.33837	-456.74134	-140.15355	1375.38275	-818.74790	-238.55112	1282.48465	-827.58232	-168.63883	1289.95597	-876.00325	-17.68879	1259.28839	-738.44834	29.48565	1257.22498	-680.60994	31.75331	1226.68145	-698.16734	-283.33191	1077.50916	-480.61262	-285.01008	1076.70624	-678.08024	-275.20697	1083.12017	-487.11865	-267.59467	1086.88252	-666.01878	
302	3.01000000	-213.77585	609.71811	-352.43734	-196.60305	461.14932	-337.54806	-294.08452	104.61222	-303.23175	-352.82277	72.08458	-364.78487	-159.28844	43.49662	-270.12800	-120.86186	72.63592	-319.82331	-241.24464	610.43225	-825.34262	-204.23224	411.82378	-838.46510	-303.90444	116.95920	-878.44130	-358.41426	75.50557	-819.17583	-165.11416	36.31443	-927.98694	-120.98326	66.08184	-870.13234	-212.73012	347.98897	-330.59324	-263.17675	470.32819	-305.41553	-281.63732	361.28760	-287.56731	-275.89855	432.99005	-884.83552	-293.81054	314.41148	-884.91123	-222.10359	907.52886	-359.57400	-193.52934	799.97325	-347.05645	-250.75194	762.02018	-341.24579	-325.32896	877.99821	-395.15424	-299.39913	764.67397	-369.47430	-197.73725	907.29202	-793.35512	-189.16305	772.98209	-808.03244	-307.36382	906.13404	-798.75570	-296.48551	770.06295	-823.67651	-194.71856	1169.51173	-443.81784	-375.23308	1208.09302	-537.48863	-192.22514	1161.79102	-714.79241	-371.41753	1210.21173	-629.72048	-244.46205	1683.05748	-583.10277	-160.76960	1644.17069	-408.52024	-172.75597	1657.51069	-750.01703	-103.89562	1597.11658	-553.50233	-103.41296	1598.72969	-599.34969	-157.57463	1380.88848	-331.06577	-249.73954	1252.07732	-332.85468	-196.32003	1275.89418	-266.75459	-34.78568	1255.56846	-406.81797	29.86306	1248.78083	-466.07270	28.81132	1213.16699	-456.38333	-146.22344	1377.80862	-820.01458	-245.14383	1285.67700	-829.01632	-175.09334	1292.94958	-877.27675	-24.91268	1261.98327	-739.10124	22.12888	1259.89951	-681.19349	24.19022	1229.19404	-698.43144	-276.68113	1077.85590	-480.79238	-278.49831	1077.07217	-678.25892	-268.58518	1083.57559	-487.42643	-261.19076	1087.68044	-666.15025	
303	3.02000000	-212.09012	609.60131	-352.41835	-195.36288	460.94447	-337.53923	-293.82633	104.59798	-303.29631	-352.67077	72.21051	-364.76688	-159.18084	43.36159	-269.90311	-120.56387	72.06839	-319.71897	-240.08467	610.60152	-825.45559	-203.49745	411.61306	-838.23418	-303.80371	117.00968	-878.46351	-358.28971	75.59492	-819.21704	-165.10518	36.21641	-928.06086	-120.88472	65.86893	-870.24099	-211.66184	347.77552	-330.56851	-261.92331	470.31942	-305.41491	-280.97679	361.91764	-287.40710	-275.07652	433.02657	-884.82576	-293.24398	314.29130	-884.88063	-218.13175	907.34574	-359.37763	-190.43277	799.62121	-346.73089	-248.08033	762.02802	-341.47639	-321.26073	878.73311	-395.93685	-296.44374	765.18340	-370.09401	-193.51883	907.06334	-793.57988	-186.35902	772.64517	-808.30896	-303.14369	907.09920	-798.88281	-293.77314	770.77646	-823.51186	-189.84672	1171.23805	-444.08886	-371.23284	1206.38780	-537.52708	-187.58516	1163.64870	-715.00503	-367.64942	1208.68426	-629.82282	-249.39127	1684.01630	-583.41936	-166.29947	1645.47082	-408.53130	-177.90054	1659.71923	-750.20502	-107.29326	1600.58485	-552.59669	-106.72703	1602.21196	-598.74818	-163.00190	1382.78045	-329.85357	-255.34351	1254.51660	-330.12670	-201.73834	1278.62529	-265.04897	-41.16317	1258.03714	-406.05602	23.10838	1251.09627	-465.63738	22.05849	1215.48725	-456.08239	-152.14361	1379.73894	-821.25390	-251.39776	1288.21217	-830.32329	-181.22195	1295.49730	-878.60969	-31.82734	1264.20006	-739.64651	15.04231	1261.96023	-681.73881	16.99097	1231.29964	-698.97706	-270.15958	1078.05888	-480.99562	-272.19929	1077.30529	-678.46006	-262.02823	1083.83464	-487.63158	-255.09136	1088.28088	-666.32244	
304	3.03000000	-210.26226	609.46032	-352.48745	-194.04391	460.78256	-337.41228	-293.57707	104.64916	-303.33578	-352.47528	72.30636	-364.74863	-159.13396	43.22357	-269.69997	-120.26717	71.47009	-319.68202	-238.87102	610.77147	-825.66883	-202.72952	411.47013	-838.16316	-303.65076	117.11083	-878.53183	-358.18196	75.68277	-819.21756	-165.06532	36.06894	-928.14789	-120.78812	65.65915	-870.31150	-210.59429	347.67059	-330.50230	-260.64721	470.23275	-305.35523	-279.45472	361.50179	-287.34552	-274.16886	433.05412	-884.92635	-292.65780	314.39111	-885.15909	-214.16079	906.97830	-359.17751	-187.30653	799.28137	-346.48950	-245.40025	762.13890	-341.63297	-317.36146	879.49073	-396.42038	-293.50240	765.71416	-370.65007	-189.62683	906.96287	-794.04724	-183.73910	772.33570	-808.70249	-299.25615	907.87459	-798.90178	-291.23902	771.46594	-823.51866	-185.13504	1172.89302	-444.36333	-367.28802	1204.58045	-537.57978	-183.11863	1165.27555	-715.14873	-364.10343	1207.00570	-629.80014	-254.08958	1684.71124	-583.73854	-172.36173	1645.27177	-409.10557	-182.76225	1661.49788	-750.40386	-110.91875	1603.24630	-552.37718	-110.33113	1604.77824	-598.94245	-168.10512	1384.24160	-328.58022	-260.19023	1256.36405	-327.69304	-207.03615	1280.80339	-263.45119	-47.19971	1259.99194	-405.26759	16.85673	1253.02388	-465.25155	15.72533	1217.38268	-455.67301	-157.81469	1381.22197	-822.72006	-257.41548	1290.28811	-831.71409	-187.06163	1297.58769	-879.98514	-38.38075	1265.98463	-740.22111	8.28986	1263.44998	-682.38460	10.20390	1232.92592	-699.62992	-263.79181	1078.21798	-481.09833	-266.09853	1077.38059	-678.55943	-255.48656	1084.05939	-487.66918	-249.31950	1088.75741	-666.29435	
